# xmcd
#
# Track frame offsets: 
#        150
#        10772
#        19134
#        29185
#        39243
#        47420
#        58129
#        65622
#        74684
#        83014
#        91223
#        100689
#        108356
#        116808
#        124569
#        135566
#        143710
#
# Disc length: 2040 seconds
#
# Revision: 0
# Processed by: cddbd v1.5.2PL0 Copyright (c) Steve Scherf et al.
# Submitted via: ExactAudioCopy v0.95b4
#
DISCID=e507f611
DTITLE=Charlie Cushman , Johnny Warren, and Others - A Tribute to Fiddli
DTITLE=n' Paul Warren
DYEAR=2009
DGENRE=Bluegrass
TTITLE0=01 Katy Hill
TTITLE1=02 Poplar Top
TTITLE2=03 Love Somebody
TTITLE3=04 Sugar Tree Stomp
TTITLE4=05 Little Black Mustache
TTITLE5=06 Sugar in my Coffee
TTITLE6=07 Over There
TTITLE7=08 Wait in the Kitchen 'til the Cook Comes Home
TTITLE8=09 Ole Joe Can't Play the Fiddle ( cause the bow's too short a
TTITLE8=nd broke in the middle )
TTITLE9=10 Hollow Poplar
TTITLE10=11 Little Paul
TTITLE11=12 Pretty Girl Goin' to Milka Cow
TTITLE12=13 Two Hog Weeds and One Stalk of Corn
TTITLE13=14 Weekender's Two Step
TTITLE14=15 Lorie's Reel
TTITLE15=16 Buck Creek Gal
TTITLE16=17 Fort Smith
EXTD=
EXTT0=
EXTT1=
EXTT2=
EXTT3=
EXTT4=
EXTT5=
EXTT6=
EXTT7=
EXTT8=
EXTT9=
EXTT10=
EXTT11=
EXTT12=
EXTT13=
EXTT14=
EXTT15=
EXTT16=
PLAYORDER=
